<?xml version="1.0" encoding="UTF-8"?>
<svg version="1.1" xmlns="http://www.w3.org/2000/svg" width="500" height="500">
<path d="M0 0 C1.65 0 3.3 0 5 0 C5 3.63 5 7.26 5 11 C5.87736816 10.97905273 6.75473633 10.95810547 7.65869141 10.93652344 C10.93516683 10.868074 14.21087512 10.81806949 17.48779297 10.78027344 C18.90197795 10.76024157 20.31608097 10.73300752 21.72998047 10.69824219 C23.77071419 10.64934511 25.8103469 10.62694877 27.8515625 10.609375 C29.68968506 10.5779541 29.68968506 10.5779541 31.56494141 10.54589844 C35.76784495 11.10150616 37.79139404 12.24813307 41 15 C45.2391371 20.58273465 44.44972518 27.36466574 44.43359375 34.0625 C44.4388356 35.32715088 44.44407745 36.59180176 44.44947815 37.89477539 C44.45589245 40.56460881 44.45601456 43.23358453 44.44604492 45.90332031 C44.43454829 49.31303765 44.45478784 52.72172038 44.48396206 56.13130188 C44.50678629 59.40003938 44.49985515 62.66870152 44.49609375 65.9375 C44.50732773 67.15638916 44.51856171 68.37527832 44.53013611 69.63110352 C44.47755615 76.02852889 44.40050328 80.18213257 40 85 C36.40401849 88.16010497 33.9946286 89.05408856 29.12109375 88.7890625 C20.65307684 88.14140459 20.65307684 88.14140459 13.25976562 91.51513672 C10.72671581 94.71456075 8.88971844 98.12984987 7.04296875 101.75390625 C5 105 5 105 2.46484375 105.7578125 C-0.89563628 104.72463797 -1.74649787 103.25034009 -3.625 100.3125 C-4.19476563 99.44238281 -4.76453125 98.57226562 -5.3515625 97.67578125 C-7 95 -7 95 -8.16015625 92.20703125 C-9.73458552 89.87129869 -9.73458552 89.87129869 -11.82519531 89.56274414 C-14.16530206 89.38752253 -16.46599656 89.35249157 -18.8125 89.375 C-26.19832982 89.375 -30.81705109 88.74772936 -36.63183594 83.72802734 C-40.58837897 78.81637081 -39.69180223 72.48985672 -39.62890625 66.5 C-39.63131821 65.19095703 -39.63373016 63.88191406 -39.63621521 62.53320312 C-39.63906559 59.76921338 -39.62444908 57.0060374 -39.59692383 54.2421875 C-39.56284023 50.71133057 -39.56886531 47.18192755 -39.5875864 43.65100098 C-39.6007372 40.26719133 -39.58242921 36.88379954 -39.56640625 33.5 C-39.57136612 32.23736328 -39.57632599 30.97472656 -39.58143616 29.67382812 C-39.43249156 18.56222998 -39.43249156 18.56222998 -35 14 C-31.09471148 10.87864223 -28.09510761 10.64191488 -23.16796875 10.70703125 C-21.87568359 10.71669922 -20.58339844 10.72636719 -19.25195312 10.73632812 C-17.8971293 10.76139015 -16.54231159 10.78678494 -15.1875 10.8125 C-13.81316555 10.82755987 -12.43881532 10.84124599 -11.06445312 10.85351562 C-7.70923368 10.88883372 -4.35481834 10.93816149 -1 11 C-1.01160156 10.37351563 -1.02320313 9.74703125 -1.03515625 9.1015625 C-1.04417969 8.28429687 -1.05320312 7.46703125 -1.0625 6.625 C-1.07410156 5.81289062 -1.08570313 5.00078125 -1.09765625 4.1640625 C-1 2 -1 2 0 0 Z M-33 21 C-33.56766365 22.96053385 -33.56766365 22.96053385 -33.45410156 25.03417969 C-33.45361816 25.82550293 -33.45313477 26.61682617 -33.45263672 27.43212891 C-33.43217285 28.25374512 -33.41170898 29.07536133 -33.390625 29.921875 C-33.38659668 30.6845166 -33.38256836 31.4471582 -33.37841797 32.23291016 C-33.35754509 35.07218607 -33.30169922 37.91111807 -33.25 40.75 C-33.1675 47.1025 -33.085 53.455 -33 60 C-9.57 60 13.86 60 38 60 C38.103125 53.833125 38.20625 47.66625 38.3125 41.3125 C38.38078003 38.40497925 38.38078003 38.40497925 38.45043945 35.4387207 C38.46505008 33.89275847 38.4777894 32.34677693 38.48828125 30.80078125 C38.51386108 30.0058728 38.53944092 29.21096436 38.5657959 28.39196777 C38.56879697 24.5632052 38.21603655 22.39155831 36.33886719 18.98925781 C30.88382868 15.73921001 25.31771102 16.30843695 19.08984375 16.37109375 C17.71651522 16.37026451 16.34318679 16.36780306 14.96986389 16.36378479 C12.09736106 16.36093158 9.22564006 16.37558105 6.35327148 16.40307617 C2.67535633 16.43719223 -1.00116444 16.4311266 -4.67914677 16.4124136 C-7.51284875 16.40183564 -10.3462273 16.41078771 -13.17989922 16.42579842 C-15.19398067 16.43348432 -17.20810133 16.4261326 -19.22218323 16.41856384 C-21.05945229 16.44231834 -21.05945229 16.44231834 -22.93383789 16.46655273 C-24.55002769 16.4758506 -24.55002769 16.4758506 -26.1988678 16.4853363 C-29.70299513 17.12916423 -30.89212562 18.16419372 -33 21 Z M-33 67 C-34.04168298 77.02301402 -34.04168298 77.02301402 -31.1875 80.625 C-27.94138933 82.66541242 -25.56684156 83.09791814 -21.83203125 82.89453125 C-8.94870791 82.57717004 -8.94870791 82.57717004 -5.328125 85.22070312 C-2.47345372 88.399396 -0.63554816 92.08531252 1 96 C4.62885578 94.54845769 6.15432673 92.7599362 8.25 89.5 C9.03117187 88.30890625 9.03117187 88.30890625 9.828125 87.09375 C11.16280169 85.10902625 11.16280169 85.10902625 11 83 C11.86951294 83.02356567 11.86951294 83.02356567 12.7565918 83.04760742 C15.40012739 83.11022791 18.04350655 83.14907518 20.6875 83.1875 C22.05551758 83.22520508 22.05551758 83.22520508 23.45117188 83.26367188 C28.47061326 83.31842942 31.93859476 83.30840308 36 80 C36.66 79.34 37.32 78.68 38 78 C38 74.37 38 70.74 38 67 C14.57 67 -8.86 67 -33 67 Z " fill="#ECECEC" transform="translate(317,130)"/>
<path d="M0 0 C2.31 0 4.62 0 7 0 C7.00586624 0.58802399 7.01173248 1.17604797 7.01777649 1.78189087 C7.08182009 7.91431517 7.16626806 14.04622 7.26245117 20.17822266 C7.29566006 22.46526226 7.32370451 24.75238303 7.34643555 27.03955078 C7.3800551 30.33140578 7.43237624 33.62251972 7.48828125 36.9140625 C7.49467117 37.93303619 7.5010611 38.95200989 7.50764465 40.00186157 C7.61933585 45.42185397 8.00235368 49.2889144 11 54 C9.35 54.66 7.7 55.32 6 56 C4.35 54.68 2.7 53.36 1 52 C0.4225 52.28875 -0.155 52.5775 -0.75 52.875 C-1.4925 53.24625 -2.235 53.6175 -3 54 C-3.61746094 54.34289062 -4.23492187 54.68578125 -4.87109375 55.0390625 C-8.56051212 56.70437795 -12.05045299 56.76464294 -16 56 C-20.70033697 53.34830046 -23.43380204 50.17654161 -25 45 C-25.77914397 36.9095864 -26.21567424 28.69603062 -21 22 C-18.69320698 19.28612586 -17.2058299 18.17572395 -13.66796875 17.66015625 C-7.78745297 17.43974711 -5.63717033 18.18141484 0 21 C0 14.07 0 7.14 0 0 Z M-15 25 C-18.49162482 30.92602459 -19.09144753 37.67133396 -17.42578125 44.27734375 C-16.14402784 48.02765929 -15.35392642 49.76404905 -12 52 C-8.29202995 51.86266778 -5.62568876 51.31739154 -2.3125 49.63671875 C1.32968005 45.48389521 0.72797683 41.27513227 0.625 35.9375 C0.64433594 34.93138672 0.66367187 33.92527344 0.68359375 32.88867188 C0.66533907 30.15594646 0.57552382 27.67182572 0 25 C-2.61397215 22.63028426 -4.06798641 22.13980204 -7.5 21.625 C-10.80399059 22.12059859 -12.42490003 22.83149476 -15 25 Z " fill="#F1F1F1" transform="translate(356,223)"/>
<path d="M0 0 C3 1 3 1 4.82177734 4.50317383 C5.50430503 6.06630883 6.17484309 7.63471154 6.8359375 9.20703125 C7.19716705 10.04280197 7.55839661 10.87857269 7.93057251 11.7396698 C9.08886184 14.42638203 10.23198944 17.11925732 11.375 19.8125 C12.13704897 21.58570444 12.9000592 23.3584961 13.6640625 25.13085938 C15.47327098 29.33572735 17.26701613 33.54691066 19.05163574 37.76226807 C19.91498897 39.79941051 20.78345315 41.83428559 21.65332031 43.86865234 C22.11061523 44.94711426 22.56791016 46.02557617 23.0390625 47.13671875 C23.42529785 48.04510498 23.8115332 48.95349121 24.20947266 49.8894043 C25 52 25 52 25 54 C22.03 54 19.06 54 16 54 C15.15973604 52.23244474 14.32801278 50.46082737 13.5 48.6875 C13.0359375 47.70136719 12.571875 46.71523438 12.09375 45.69921875 C11 43 11 43 11 40 C3.08 40.33 -4.84 40.66 -13 41 C-13.804375 42.959375 -14.60875 44.91875 -15.4375 46.9375 C-17.875 52.875 -17.875 52.875 -19 54 C-20.66617115 54.04063832 -22.33388095 54.042721 -24 54 C-23.64772339 53.19054932 -23.64772339 53.19054932 -23.28833008 52.36474609 C-22.5598598 50.69064353 -21.83152181 49.01648341 -21.10327148 47.34228516 C-20.23194673 45.33924353 -19.36035838 43.33631656 -18.48852539 41.33349609 C-16.1088132 35.86326473 -13.7351191 30.39058423 -11.37452698 24.91207886 C-10.18871111 22.160093 -9.00124978 19.40881819 -7.81381226 16.65753174 C-7.22899133 15.30108934 -6.64502886 13.9442765 -6.06192017 12.58709717 C-5.24001877 10.67432868 -4.41522898 8.7628297 -3.58984375 6.8515625 C-3.11409912 5.74635254 -2.63835449 4.64114258 -2.14819336 3.50244141 C-1 1 -1 1 0 0 Z M-2 12 C-3.5056651 15.62267294 -5.00356546 19.24850549 -6.5 22.875 C-6.92925781 23.90753906 -7.35851562 24.94007813 -7.80078125 26.00390625 C-8.20683594 26.99003906 -8.61289062 27.97617188 -9.03125 28.9921875 C-9.40830078 29.90339355 -9.78535156 30.81459961 -10.17382812 31.75341797 C-11.11504919 33.91390327 -11.11504919 33.91390327 -11 36 C-4.4 36 2.2 36 9 36 C7.55002686 32.18412418 6.09051918 28.37240032 4.625 24.5625 C4.2125 23.47388672 3.8 22.38527344 3.375 21.26367188 C2.97539062 20.22919922 2.57578125 19.19472656 2.1640625 18.12890625 C1.79748535 17.17056885 1.4309082 16.21223145 1.05322266 15.22485352 C0.20748957 12.84663187 0.20748957 12.84663187 -2 12 Z " fill="#EBEBEB" transform="translate(284,224)"/>
<path d="M0 0 C0.763125 0.474375 1.52625 0.94875 2.3125 1.4375 C4.96410548 3.10106097 4.96410548 3.10106097 8 4 C8.86625 3.360625 9.7325 2.72125 10.625 2.0625 C14.88129314 -0.53856803 18.12186591 -1.04210599 23 0 C26.01664522 2.19963714 27.63128722 3.64398056 28.61889648 7.27612305 C29.04903166 10.35044601 29.11236983 13.28996573 29.09765625 16.39453125 C29.09443359 17.59658203 29.09121094 18.79863281 29.08789062 20.03710938 C29.07532227 21.90592773 29.07532227 21.90592773 29.0625 23.8125 C29.05798828 25.07771484 29.05347656 26.34292969 29.04882812 27.64648438 C29.03706251 30.7643711 29.02062272 33.88216133 29 37 C26.36 37 23.72 37 21 37 C20.98541748 36.13197754 20.97083496 35.26395508 20.95581055 34.36962891 C20.89479889 31.15261121 20.82065609 27.93624337 20.73754883 24.71972656 C20.70427127 23.32693911 20.67624803 21.93401589 20.65356445 20.54101562 C20.62007311 18.54008622 20.56618695 16.53953079 20.51171875 14.5390625 C20.48553467 13.33459473 20.45935059 12.13012695 20.43237305 10.88916016 C20.28968994 9.9357373 20.14700684 8.98231445 20 8 C17.17282787 5.66703749 17.17282787 5.66703749 13.9375 6.25 C10.900541 6.7593244 10.900541 6.7593244 9 9 C8.62731113 11.91188245 8.62731113 11.91188245 8.5859375 15.3203125 C8.52792969 17.20556641 8.52792969 17.20556641 8.46875 19.12890625 C8.4378125 20.44761719 8.406875 21.76632812 8.375 23.125 C8.33681971 24.46486918 8.29776794 25.80471383 8.2578125 27.14453125 C8.1632797 30.42954619 8.07772844 33.71455138 8 37 C5.36 37 2.72 37 0 37 C-0.01981934 36.11739502 -0.03963867 35.23479004 -0.06005859 34.32543945 C-0.13837866 31.03578043 -0.22507855 27.74656036 -0.31738281 24.45727539 C-0.35555149 23.0364627 -0.39042513 21.61555737 -0.421875 20.19458008 C-0.46779065 18.14631145 -0.52573805 16.09867392 -0.5859375 14.05078125 C-0.6173584 12.82012939 -0.6487793 11.58947754 -0.68115234 10.3215332 C-0.98595035 7.14635945 -1.64442201 4.86573943 -3 2 C-2.01 1.34 -1.02 0.68 0 0 Z " fill="#E8E8E8" transform="translate(199,241)"/>
<path d="M0 0 C3.85705322 2.03074534 6.24261278 4.71573471 8.4375 8.4375 C9 11 9 11 9 18 C0.75 18 -7.5 18 -16 18 C-14.70470665 24.05670046 -14.70470665 24.05670046 -13 30 C-9.43430886 31.89289776 -6.43484816 32.24865554 -2.4375 32.1875 C-1.04337891 32.17783203 -1.04337891 32.17783203 0.37890625 32.16796875 C2.72638102 32.01753445 4.75054544 31.66160428 7 31 C7 32.32 7 33.64 7 35 C1.00373589 38.19800753 -4.24778989 38.73549036 -11 38 C-16.28923987 36.23692004 -18.80008936 33.38844888 -22 29 C-23.91561899 23.25314302 -24.21646949 16.2203632 -22.05859375 10.5078125 C-16.75184537 1.69095782 -10.11653315 -1.47706958 0 0 Z M-15 10 C-15.33 11.65 -15.66 13.3 -16 15 C-10.06 15 -4.12 15 2 15 C1.59174813 9.0785554 1.59174813 9.0785554 -1.75 6.125 C-4.74502692 3.92571514 -4.74502692 3.92571514 -7.5625 3.3125 C-11.19248528 4.336342 -13.20122455 6.81063276 -15 10 Z " fill="#EAEAEA" transform="translate(110,241)"/>
<path d="M0 0 C3.97453386 1.7726421 5.81218619 4.65567467 7.875 8.4375 C9 12 9 12 9 18 C-3.375 18.495 -3.375 18.495 -16 19 C-14.5315148 26.48336897 -14.5315148 26.48336897 -10 31 C-7.41879934 32.29060033 -5.50580171 32.13272333 -2.625 32.125 C-1.66851562 32.12757813 -0.71203125 32.13015625 0.2734375 32.1328125 C2.68140854 32.01551878 4.69990068 31.68675951 7 31 C7 32.32 7 33.64 7 35 C0.80323482 38.38005374 -5.00524758 38.87556011 -12 38 C-17.01791684 35.58064724 -20.49958655 32.0008269 -23 27 C-23.14977039 24.75344413 -23.22150174 22.50136232 -23.25 20.25 C-23.27578125 19.03828125 -23.3015625 17.8265625 -23.328125 16.578125 C-22.89367747 11.84057817 -21.51361896 8.60800945 -18.24609375 5.13671875 C-17.64925781 4.65847656 -17.05242187 4.18023437 -16.4375 3.6875 C-15.83808594 3.19636719 -15.23867188 2.70523438 -14.62109375 2.19921875 C-10.24815206 -1.03570438 -5.22877147 -0.64251853 0 0 Z M-12.875 6.625 C-15.32244372 10.06735719 -15.32244372 10.06735719 -16 15 C-10.06 15 -4.12 15 2 15 C1.00911531 10.04557654 0.55587572 8.36872437 -3 5 C-7.72542306 3.36758113 -9.11857322 3.19521902 -12.875 6.625 Z " fill="#EAEAEA" transform="translate(394,241)"/>
<path d="M0 0 C3.97453386 1.7726421 5.81218619 4.65567467 7.875 8.4375 C9 12 9 12 9 18 C-3.375 18.495 -3.375 18.495 -16 19 C-14.5315148 26.48336897 -14.5315148 26.48336897 -10 31 C-7.41879934 32.29060033 -5.50580171 32.13272333 -2.625 32.125 C-1.66851562 32.12757813 -0.71203125 32.13015625 0.2734375 32.1328125 C2.68140854 32.01551878 4.69990068 31.68675951 7 31 C7 32.32 7 33.64 7 35 C0.80323482 38.38005374 -5.00524758 38.87556011 -12 38 C-17.01791684 35.58064724 -20.49958655 32.0008269 -23 27 C-23.14977039 24.75344413 -23.22150174 22.50136232 -23.25 20.25 C-23.27578125 19.03828125 -23.3015625 17.8265625 -23.328125 16.578125 C-22.89367747 11.84057817 -21.51361896 8.60800945 -18.24609375 5.13671875 C-17.64925781 4.65847656 -17.05242187 4.18023437 -16.4375 3.6875 C-15.83808594 3.19636719 -15.23867187 2.70523438 -14.62109375 2.19921875 C-10.24815206 -1.03570438 -5.22877147 -0.64251853 0 0 Z M-12.875 6.625 C-15.32244372 10.06735719 -15.32244372 10.06735719 -16 15 C-10.06 15 -4.12 15 2 15 C1.00911531 10.04557654 0.55587572 8.36872437 -3 5 C-7.72542306 3.36758113 -9.11857322 3.19521902 -12.875 6.625 Z " fill="#EAEAEA" transform="translate(181,241)"/>
<path d="M0 0 C0 2.64 0 5.28 0 8 C2.97 8 5.94 8 9 8 C9 8.99 9 9.98 9 11 C6.03 11 3.06 11 0 11 C0.33 20.57 0.66 30.14 1 40 C3.64 40 6.28 40 9 40 C8.6875 41.9375 8.6875 41.9375 8 44 C4.29839178 45.23386941 0.85206234 45.44267652 -3 45 C-6.23613354 43.25746655 -6.82395315 42.52814056 -8 39 C-8.0833804 36.86205475 -8.10733747 34.72157991 -8.09765625 32.58203125 C-8.09443359 31.32841797 -8.09121094 30.07480469 -8.08789062 28.78320312 C-8.07951172 27.47287109 -8.07113281 26.16253906 -8.0625 24.8125 C-8.05748317 23.47721519 -8.05292059 22.14192859 -8.04882812 20.80664062 C-8.03702695 17.53771527 -8.02056297 14.26888009 -8 11 C-10.97 10.505 -10.97 10.505 -14 10 C-14 9.34 -14 8.68 -14 8 C-12.02 8 -10.04 8 -8 8 C-7.938125 7.4225 -7.87625 6.845 -7.8125 6.25 C-6.57516782 2.82354165 -3.78322279 0 0 0 Z " fill="#E4E4E4" transform="translate(248,234)"/>
<path d="M0 0 C2.31 0 4.62 0 7 0 C7.72916667 1.75 8.45833333 3.5 9.1875 5.25 C9.86619141 6.87615234 9.86619141 6.87615234 10.55859375 8.53515625 C11.51430279 10.83248394 12.4648856 13.13195136 13.41015625 15.43359375 C14.07337891 17.04427734 14.07337891 17.04427734 14.75 18.6875 C15.15734375 19.68136719 15.5646875 20.67523438 15.984375 21.69921875 C16.79879158 23.91923591 16.79879158 23.91923591 18 25 C18.25168945 24.27820557 18.50337891 23.55641113 18.76269531 22.81274414 C19.90857125 19.55655543 21.07888199 16.30969084 22.25 13.0625 C22.64574219 11.92619141 23.04148438 10.78988281 23.44921875 9.61914062 C23.84238281 8.53955078 24.23554688 7.45996094 24.640625 6.34765625 C24.99672852 5.34742432 25.35283203 4.34719238 25.71972656 3.31665039 C27 1 27 1 29.14746094 0.16577148 C29.75879883 0.11106689 30.37013672 0.0563623 31 0 C28.75577043 8.31649759 25.60997072 16.17703186 22.3125 24.125 C21.79578987 25.3800297 21.27951093 26.63523702 20.76367188 27.890625 C19.51332553 30.92884977 18.25868796 33.9652238 17 37 C14 36 14 36 12.37426758 32.90478516 C11.78611569 31.53779914 11.21034879 30.16544324 10.64453125 28.7890625 C10.33803146 28.06512299 10.03153168 27.34118347 9.71574402 26.5953064 C9.06940205 25.06245326 8.42836832 23.52735271 7.79223633 21.99023438 C6.81726611 19.63650612 5.82517257 17.29059325 4.83007812 14.9453125 C4.20470286 13.45615975 3.58032048 11.96658957 2.95703125 10.4765625 C2.6602095 9.77334869 2.36338776 9.07013489 2.05757141 8.34561157 C0.84579978 5.40255399 0 3.2156313 0 0 Z " fill="#EEEEEE" transform="translate(124,242)"/>
<path d="M0 0 C2.31 0 4.62 0 7 0 C7 11.88 7 23.76 7 36 C4.69 36 2.38 36 0 36 C0 24.12 0 12.24 0 0 Z " fill="#F6F6F6" transform="translate(316,242)"/>
<path d="M0 0 C1.32 0.33 2.64 0.66 4 1 C4 9.58 4 18.16 4 27 C2.35 27.33 0.7 27.66 -1 28 C-3.58955157 25.41044843 -2.18558792 18.04822397 -2.1875 14.5625 C-2.19974609 13.39138672 -2.21199219 12.22027344 -2.22460938 11.01367188 C-2.22654297 9.89669922 -2.22847656 8.77972656 -2.23046875 7.62890625 C-2.23457764 6.59838135 -2.23868652 5.56785645 -2.24291992 4.50610352 C-2 2 -2 2 0 0 Z " fill="#E7E7E7" transform="translate(263,157)"/>
<path d="M0 0 C1.98 0.495 1.98 0.495 4 1 C4 9.91 4 18.82 4 28 C3.01 28.33 2.02 28.66 1 29 C0.34 28.67 -0.32 28.34 -1 28 C-1.02886338 23.52084672 -1.04675187 19.04171709 -1.0625 14.5625 C-1.07087891 13.28310547 -1.07925781 12.00371094 -1.08789062 10.68554688 C-1.09111328 9.47060547 -1.09433594 8.25566406 -1.09765625 7.00390625 C-1.10289307 5.87799072 -1.10812988 4.7520752 -1.11352539 3.59204102 C-1 1 -1 1 0 0 Z " fill="#F9F9F9" transform="translate(373,157)"/>
<path d="M0 0 C1.9375 1.6875 1.9375 1.6875 3 4 C2.75925978 7.37036311 2.41201979 8.58798021 0 11 C-3.13704316 11.333728 -5.16554166 11.52849028 -7.875 9.8125 C-9.40659584 7.34492892 -9.42822025 5.85480169 -9 3 C-6.74280427 -0.63659311 -4.02330328 -0.58673173 0 0 Z " fill="#ECECEC" transform="translate(339,166)"/>
<path d="M0 0 C1.1875 2.1875 1.1875 2.1875 2 5 C1 7.8125 1 7.8125 -1 10 C-4.24145792 10.54024299 -6.06992828 10.58904542 -8.875 8.8125 C-10.40659584 6.34492892 -10.42822025 4.85480169 -10 2 C-7.58628749 -2.25949266 -4.24852727 -0.88176981 0 0 Z " fill="#EFEFEF" transform="translate(307,167)"/>
<path d="M0 0 C0.99 0 1.98 0 3 0 C0.68860831 8.61703042 -2.60795466 16.76688023 -6 25 C-6.99 24.67 -7.98 24.34 -9 24 C-3.234375 3.234375 -3.234375 3.234375 0 0 Z " fill="#E3E3E3" transform="translate(152,242)"/>
<path d="M0 0 C0.33 0.66 0.66 1.32 1 2 C1.66 2 2.32 2 3 2 C2.54738642 3.43931117 2.08767021 4.87638999 1.625 6.3125 C1.36976563 7.11300781 1.11453125 7.91351563 0.8515625 8.73828125 C0 11 0 11 -2 14 C-2.66 13.67 -3.32 13.34 -4 13 C-3.52140759 11.39566191 -3.04210442 9.79153584 -2.5625 8.1875 C-2.29566406 7.29417969 -2.02882812 6.40085937 -1.75390625 5.48046875 C-1.19612127 3.64526945 -0.60655425 1.81966274 0 0 Z " fill="#D9D9D9" transform="translate(147,253)"/>
<path d="M0 0 C1.32 0 2.64 0 4 0 C3.34 2.31 2.68 4.62 2 7 C1.01 7 0.02 7 -1 7 C-1.33 6.34 -1.66 5.68 -2 5 C-1.0625 2.375 -1.0625 2.375 0 0 Z " fill="#DDDDDD" transform="translate(278,236)"/>
</svg>
