<?xml version="1.0" encoding="utf-8"?>
<!-- Generator: Adobe Illustrator 27.1.1, SVG Export Plug-In . SVG Version: 6.00 Build 0)  -->
<svg version="1.1" id="Layer_1" xmlns="http://www.w3.org/2000/svg" xmlns:xlink="http://www.w3.org/1999/xlink" x="0px" y="0px"
	 viewBox="0 0 500 500" style="enable-background:new 0 0 500 500;" xml:space="preserve">
<style type="text/css">
	.st0{fill:#C68BB7;}
</style>
<g>
	<g>
		<path class="st0" d="M314,130c1.6,0,3.3,0,5,0c0,3.6,0,7.3,0,11c0.9,0,1.8,0,2.7-0.1c3.3-0.1,6.6-0.1,9.8-0.2c1.4,0,2.8,0,4.2-0.1
			c2,0,4.1-0.1,6.1-0.1c1.8,0,1.8,0,3.7-0.1c4.2,0.6,6.2,1.7,9.4,4.5c4.2,5.6,3.4,12.4,3.4,19.1c0,1.3,0,2.5,0,3.8c0,2.7,0,5.3,0,8
			c0,3.4,0,6.8,0,10.2c0,3.3,0,6.5,0,9.8c0,1.2,0,2.4,0,3.7c-0.1,6.4-0.1,10.6-4.5,15.4c-3.6,3.2-6,4.1-10.9,3.8
			c-8.5-0.6-8.5-0.6-15.9,2.7c-2.5,3.2-4.4,6.6-6.2,10.2c-2,3.2-2,3.2-4.6,4c-3.4-1-4.2-2.5-6.1-5.4c-0.6-0.9-1.1-1.7-1.7-2.6
			c-1.6-2.7-1.6-2.7-2.8-5.5c-1.6-2.3-1.6-2.3-3.7-2.6c-2.3-0.2-4.6-0.2-7-0.2c-7.4,0-12-0.6-17.8-5.6c-4-4.9-3.1-11.2-3-17.2
			c0-1.3,0-2.6,0-4c0-2.8,0-5.5,0-8.3c0-3.5,0-7.1,0-10.6c0-3.4,0-6.8,0-10.2c0-1.3,0-2.5,0-3.8c0.1-11.1,0.1-11.1,4.6-15.7
			c3.9-3.1,6.9-3.4,11.8-3.3c1.3,0,2.6,0,3.9,0c1.4,0,2.7,0.1,4.1,0.1s2.7,0,4.1,0c3.4,0,6.7,0.1,10.1,0.1c0-0.6,0-1.3,0-1.9
			c0-0.8,0-1.6,0-2.5c0-0.8,0-1.6,0-2.5C313,132,313,132,314,130z M281.5,151c-0.6,2-0.6,2-0.5,4c0,0.8,0,1.6,0,2.4
			c0,0.8,0,1.6,0.1,2.5c0,0.8,0,1.5,0,2.3c0,2.8,0.1,5.7,0.1,8.5c0.1,6.4,0.2,12.7,0.2,19.2c23.4,0,46.9,0,71,0
			c0.1-6.2,0.2-12.3,0.3-18.7c0.1-2.9,0.1-2.9,0.1-5.9c0-1.5,0-3.1,0-4.6c0-0.8,0.1-1.6,0.1-2.4c0-3.8-0.3-6-2.2-9.4
			c-5.5-3.3-11-2.7-17.2-2.6c-1.4,0-2.7,0-4.1,0c-2.9,0-5.7,0-8.6,0c-3.7,0-7.4,0-11,0c-2.8,0-5.7,0-8.5,0c-2,0-4,0-6,0
			c-1.8,0-1.8,0-3.7,0c-1.6,0-1.6,0-3.3,0C284.8,147.1,283.6,148.2,281.5,151z M281,197c-1,10-1,10,1.8,13.6c3.2,2,5.6,2.5,9.4,2.3
			c12.9-0.3,12.9-0.3,16.5,2.3c2.9,3.2,4.7,6.9,6.3,10.8c3.6-1.5,5.2-3.2,7.2-6.5c0.8-1.2,0.8-1.2,1.6-2.4c1-1.5,1.2-1.8,1.2-2.8
			c0-0.7,0.6-1.3,1.3-1.3h0.4c2.6,0.1,5.3,0.1,7.9,0.1c1.4,0,1.4,0,2.8,0.1c5,0.1,8.5,0,12.5-3.3l2-2v-11L281,197L281,197z"/>
		<path class="st0" d="M260,157c1.3,0.3,2.6,0.7,4,1c0,8.6,0,17.2,0,26c-1.6,0.3-3.3,0.7-5,1c-2.6-2.6-1.2-10-1.2-13.4
			c0-1.2,0-2.3,0-3.5c0-1.1,0-2.2,0-3.4c0-1,0-2.1,0-3.1C258,159,258,159,260,157z"/>
		<path class="st0" d="M370,157c2,0.5,2,0.5,4,1c0,8.9,0,17.8,0,27c-1,0.3-2,0.7-3,1c-0.7-0.3-1.3-0.7-2-1c0-4.5,0-9-0.1-13.4
			c0-1.3,0-2.6,0-3.9c0-1.2,0-2.4,0-3.7c0-1.1,0-2.3,0-3.4C369,158,369,158,370,157z"/>
		<path class="st0" d="M336.5,166c1.9,1.7,1.9,1.7,3,4c-0.2,3.4-0.6,4.6-3,7c-3.1,0.3-5.2,0.5-7.9-1.2c-1.5-2.5-1.6-4-1.1-6.8
			C329.8,165.4,332.5,165.4,336.5,166z"/>
		<path class="st0" d="M304.5,167c1.2,2.2,1.2,2.2,2,5c-1,2.8-1,2.8-3,5c-3.2,0.5-5.1,0.6-7.9-1.2c-1.5-2.5-1.6-4-1.1-6.8
			C296.9,164.7,300.2,166.1,304.5,167z"/>
	</g>
</g>
<path class="st0" d="M115.9,254.3H96v18.4h22.1v5.5H89.4v-51H117v5.5H96v16.1h19.8L115.9,254.3L115.9,254.3z"/>
<path class="st0" d="M128.5,241.6l7.2,20.6c1.2,3.3,2.2,6.4,3,9.4h0.2c0.8-3,1.9-6.1,3.1-9.4l7.1-20.6h7l-14.4,36.7h-6.4l-13.9-36.7
	L128.5,241.6L128.5,241.6z"/>
<path class="st0" d="M165.3,261.1c0.2,9,5.9,12.7,12.6,12.7c4.8,0,7.6-0.8,10.1-1.9l1.1,4.8c-2.3,1.1-6.4,2.3-12.2,2.3
	c-11.3,0-18-7.4-18-18.5s6.5-19.8,17.2-19.8c12,0,15.1,10.5,15.1,17.3c0,1.4-0.2,2.4-0.2,3.1H165.3z M184.9,256.4
	c0.1-4.2-1.7-10.8-9.2-10.8c-6.7,0-9.7,6.2-10.2,10.8H184.9z"/>
<path class="st0" d="M199.6,251.5c0-3.8-0.1-6.9-0.3-9.9h5.9l0.4,6.1h0.2c1.8-3.5,6.1-6.9,12.1-6.9c5.1,0,12.9,3,12.9,15.6v21.9
	h-6.7v-21.1c0-5.9-2.2-10.8-8.5-10.8c-4.4,0-7.8,3.1-8.9,6.8c-0.3,0.8-0.5,2-0.5,3.1v22h-6.7v-26.8H199.6z"/>
<path class="st0" d="M249.3,231.1v10.5h9.5v5.1h-9.5v19.8c0,4.5,1.3,7.1,5,7.1c1.7,0,3-0.2,3.9-0.5l0.3,5c-1.3,0.5-3.3,0.9-5.9,0.9
	c-3.1,0-5.6-1-7.2-2.8c-1.9-2-2.6-5.2-2.6-9.5v-20h-5.7v-5.1h5.7v-8.8L249.3,231.1z"/>
<path class="st0" d="M274.8,262.2l-5.3,16.1h-6.8l17.3-51h8l17.4,51h-7l-5.5-16.1H274.8z M291.6,257l-5-14.7
	c-1.1-3.3-1.9-6.4-2.7-9.3h-0.2c-0.8,3-1.6,6.1-2.6,9.2l-5,14.8H291.6z"/>
<path class="st0" d="M319.5,240.5v37.8h-6.6v-37.8L319.5,240.5L319.5,240.5z"/>
<path class="st0" d="M362.4,224.5v44.3c0,3.3,0.1,7,0.3,9.5h-6l-0.3-6.4h-0.2c-2,4.1-6.5,7.2-12.5,7.2c-8.9,0-15.7-7.5-15.7-18.6
	c-0.1-12.2,7.5-19.7,16.4-19.7c5.6,0,9.4,2.7,11.1,5.6h0.2v-21.9L362.4,224.5L362.4,224.5z M355.8,256.5c0-0.8-0.1-2-0.3-2.8
	c-1-4.2-4.6-7.7-9.6-7.7c-6.9,0-11,6.1-11,14.2c0,7.4,3.6,13.6,10.8,13.6c4.5,0,8.6-3,9.8-8c0.2-0.9,0.3-1.8,0.3-2.9L355.8,256.5
	L355.8,256.5z"/>
<path class="st0" d="M377.2,261.1c0.2,9,5.9,12.7,12.6,12.7c4.8,0,7.6-0.8,10.1-1.9l1.1,4.8c-2.3,1.1-6.4,2.3-12.2,2.3
	c-11.3,0-18-7.4-18-18.5s6.5-19.8,17.2-19.8c12,0,15.1,10.5,15.1,17.3c0,1.4-0.2,2.4-0.2,3.1H377.2z M396.8,256.4
	c0.1-4.2-1.7-10.8-9.2-10.8c-6.7,0-9.7,6.2-10.2,10.8H396.8z"/>
<image style="overflow:visible;" width="22" height="29" xlink:href="26D6E085.jpg"  transform="matrix(1 0 0 1 56.5 218.5)">
</image>
</svg>
