<?xml version="1.0" encoding="UTF-8"?>
<svg version="1.1" xmlns="http://www.w3.org/2000/svg" width="702" height="700">
<path d="M0 0 C231.66 0 463.32 0 702 0 C702 231 702 462 702 700 C470.34 700 238.68 700 0 700 C0 469 0 238 0 0 Z " fill="#FEFEFE" transform="translate(0,0)"/>
<path d="M0 0 C0.60150879 0.47163574 1.20301758 0.94327148 1.82275391 1.42919922 C17.95033802 14.24308691 33.7710435 29.63933492 45.81542969 46.37548828 C47.04321037 48.05925841 48.31596722 49.69987958 49.6015625 51.33984375 C83.58141461 95.2420344 100.18986264 150.08379117 100.18530273 205.1081543 C100.18747772 208.0325401 100.20566343 210.95654046 100.22460938 213.88085938 C100.27402275 229.99267649 99.66667451 246.17333165 95.75 261.875 C95.53601563 262.77009277 95.32203125 263.66518555 95.1015625 264.58740234 C94.42037007 267.39683176 93.71432864 270.19882509 93 273 C92.75701172 273.96357422 92.51402344 274.92714844 92.26367188 275.91992188 C89.53841862 286.6288152 86.62846781 296.93751984 82 307 C81.23907634 308.8169813 80.47818073 310.63397441 79.71777344 312.45117188 C69.02246683 337.65888177 54.55852345 360.06602848 37 381 C38.48443842 384.46108537 40.44630233 386.68513626 43.125 389.3125 C43.84945313 390.03050781 44.57390625 390.74851562 45.3203125 391.48828125 C47.37363546 393.41289738 49.44888091 395.24723842 51.5859375 397.07421875 C57.70771212 402.396909 63.31564576 408.25878944 69.00927734 414.02978516 C74.17248769 419.25675956 79.3454046 424.38221491 84.93554688 429.15820312 C89.99839725 433.67501287 94.67407845 438.62659758 99.43652344 443.45703125 C104.51636389 448.6027536 109.61929591 453.64959755 115.11474609 458.35498047 C118.47824835 461.28987793 121.64420495 464.41993729 124.8125 467.5625 C125.79379883 468.51286133 125.79379883 468.51286133 126.79492188 469.48242188 C131.17248202 473.82421033 134.49974765 477.61991654 135.43359375 483.9296875 C135.44339713 491.32143475 134.75068821 496.98213948 129.57421875 502.52734375 C124.92695741 506.67025114 120.40238124 508.30468631 114.25 508.5 C113.28578125 508.5515625 112.3215625 508.603125 111.328125 508.65625 C102.40770776 506.89729449 95.99743382 499.36294888 89.9375 493.0625 C83.73979511 486.65674678 83.73979511 486.65674678 77.16015625 480.65234375 C71.09840669 475.45259642 65.59568629 469.6513378 59.99072266 463.97021484 C54.82751231 458.74324044 49.6545954 453.61778509 44.06445312 448.84179688 C39.00160275 444.32498713 34.32592155 439.37340242 29.56347656 434.54296875 C24.41216585 429.32484923 19.25115774 424.17951138 13.65625 419.43139648 C11.31003101 417.40370162 9.15798033 415.22541722 7 413 C2.56043968 414.45801058 -0.5912438 416.92634367 -4.125 419.875 C-26.52568852 437.89950388 -52.83464531 450.91644421 -80 460 C-81.46614746 460.49089111 -81.46614746 460.49089111 -82.96191406 460.99169922 C-96.0988682 465.32215731 -109.32281276 468.86702901 -123 471 C-124.09111084 471.17660156 -125.18222168 471.35320313 -126.30639648 471.53515625 C-138.57905656 473.31093033 -150.80381422 473.39893575 -163.1875 473.375 C-164.84616089 473.37368576 -164.84616089 473.37368576 -166.53833008 473.37234497 C-238.25000262 473.18509639 -303.653463 444.21137602 -354.375 393.875 C-360.68094423 387.53349965 -366.57116996 381.11400714 -372 374 C-372.76957031 373.04738281 -373.53914063 372.09476562 -374.33203125 371.11328125 C-401.8924554 336.52169378 -419.68747742 294.2627437 -426.55810547 250.6965332 C-426.85080249 248.9104345 -427.17763862 247.12957076 -427.53955078 245.35620117 C-429.5632253 234.5894932 -429.37213594 223.72263194 -429.37060547 212.8034668 C-429.37493366 209.36520115 -429.41121304 205.92827017 -429.44921875 202.49023438 C-429.5541778 181.9688091 -426.99712251 161.88468182 -421.875 142 C-421.58423584 140.85684326 -421.29347168 139.71368652 -420.99389648 138.53588867 C-409.79544911 96.31922051 -387.26398832 57.3897249 -357 26 C-356.33548828 25.30825684 -355.67097656 24.61651367 -354.98632812 23.90380859 C-346.05479433 14.65556787 -337.07314749 5.85274188 -326.68896484 -1.75097656 C-324.98407092 -3.01177987 -323.31348529 -4.30928433 -321.64453125 -5.6171875 C-284.6815444 -34.18351555 -239.30815993 -50.46434182 -193.1652832 -55.75024414 C-191.77388682 -55.91073557 -190.3840524 -56.08580477 -188.99682617 -56.27905273 C-122.44196744 -65.02778992 -51.9749965 -40.95184888 0 0 Z " fill="#FEFEFE" transform="translate(495,126)"/>
<path d="M0 0 C0.60150879 0.47163574 1.20301758 0.94327148 1.82275391 1.42919922 C17.95033802 14.24308691 33.7710435 29.63933492 45.81542969 46.37548828 C47.04321037 48.05925841 48.31596722 49.69987958 49.6015625 51.33984375 C83.58141461 95.2420344 100.18986264 150.08379117 100.18530273 205.1081543 C100.18747772 208.0325401 100.20566343 210.95654046 100.22460938 213.88085938 C100.27402275 229.99267649 99.66667451 246.17333165 95.75 261.875 C95.53601563 262.77009277 95.32203125 263.66518555 95.1015625 264.58740234 C94.42037007 267.39683176 93.71432864 270.19882509 93 273 C92.75701172 273.96357422 92.51402344 274.92714844 92.26367188 275.91992188 C89.53841862 286.6288152 86.62846781 296.93751984 82 307 C81.23907634 308.8169813 80.47818073 310.63397441 79.71777344 312.45117188 C69.02246683 337.65888177 54.55852345 360.06602848 37 381 C38.48443842 384.46108537 40.44630233 386.68513626 43.125 389.3125 C43.84945313 390.03050781 44.57390625 390.74851562 45.3203125 391.48828125 C47.37363546 393.41289738 49.44888091 395.24723842 51.5859375 397.07421875 C57.70771212 402.396909 63.31564576 408.25878944 69.00927734 414.02978516 C74.17248769 419.25675956 79.3454046 424.38221491 84.93554688 429.15820312 C89.99839725 433.67501287 94.67407845 438.62659758 99.43652344 443.45703125 C104.51636389 448.6027536 109.61929591 453.64959755 115.11474609 458.35498047 C118.47824835 461.28987793 121.64420495 464.41993729 124.8125 467.5625 C125.79379883 468.51286133 125.79379883 468.51286133 126.79492188 469.48242188 C131.17248202 473.82421033 134.49974765 477.61991654 135.43359375 483.9296875 C135.44339713 491.32143475 134.75068821 496.98213948 129.57421875 502.52734375 C124.92695741 506.67025114 120.40238124 508.30468631 114.25 508.5 C113.28578125 508.5515625 112.3215625 508.603125 111.328125 508.65625 C102.40770776 506.89729449 95.99743382 499.36294888 89.9375 493.0625 C83.73979511 486.65674678 83.73979511 486.65674678 77.16015625 480.65234375 C71.09840669 475.45259642 65.59568629 469.6513378 59.99072266 463.97021484 C54.82751231 458.74324044 49.6545954 453.61778509 44.06445312 448.84179688 C39.00160275 444.32498713 34.32592155 439.37340242 29.56347656 434.54296875 C24.41216585 429.32484923 19.25115774 424.17951138 13.65625 419.43139648 C11.31003101 417.40370162 9.15798033 415.22541722 7 413 C2.56043968 414.45801058 -0.5912438 416.92634367 -4.125 419.875 C-26.52568852 437.89950388 -52.83464531 450.91644421 -80 460 C-81.46614746 460.49089111 -81.46614746 460.49089111 -82.96191406 460.99169922 C-96.0988682 465.32215731 -109.32281276 468.86702901 -123 471 C-124.09111084 471.17660156 -125.18222168 471.35320313 -126.30639648 471.53515625 C-138.57905656 473.31093033 -150.80381422 473.39893575 -163.1875 473.375 C-164.84616089 473.37368576 -164.84616089 473.37368576 -166.53833008 473.37234497 C-238.25000262 473.18509639 -303.653463 444.21137602 -354.375 393.875 C-360.68094423 387.53349965 -366.57116996 381.11400714 -372 374 C-372.76957031 373.04738281 -373.53914063 372.09476562 -374.33203125 371.11328125 C-401.8924554 336.52169378 -419.68747742 294.2627437 -426.55810547 250.6965332 C-426.85080249 248.9104345 -427.17763862 247.12957076 -427.53955078 245.35620117 C-429.5632253 234.5894932 -429.37213594 223.72263194 -429.37060547 212.8034668 C-429.37493366 209.36520115 -429.41121304 205.92827017 -429.44921875 202.49023438 C-429.5541778 181.9688091 -426.99712251 161.88468182 -421.875 142 C-421.58423584 140.85684326 -421.29347168 139.71368652 -420.99389648 138.53588867 C-409.79544911 96.31922051 -387.26398832 57.3897249 -357 26 C-356.33548828 25.30825684 -355.67097656 24.61651367 -354.98632812 23.90380859 C-346.05479433 14.65556787 -337.07314749 5.85274188 -326.68896484 -1.75097656 C-324.98407092 -3.01177987 -323.31348529 -4.30928433 -321.64453125 -5.6171875 C-284.6815444 -34.18351555 -239.30815993 -50.46434182 -193.1652832 -55.75024414 C-191.77388682 -55.91073557 -190.3840524 -56.08580477 -188.99682617 -56.27905273 C-122.44196744 -65.02778992 -51.9749965 -40.95184888 0 0 Z M-319 47 C-319.59603027 47.56879883 -320.19206055 48.13759766 -320.80615234 48.72363281 C-354.97915232 81.49516078 -376.01911873 123.71167843 -385 170 C-385.17934082 170.92216309 -385.35868164 171.84432617 -385.54345703 172.79443359 C-390.88755338 201.64830834 -389.86972551 233.74926124 -381.59326172 261.96875 C-380.93493035 264.22278992 -380.31396269 266.4858296 -379.69140625 268.75 C-371.57567827 297.625586 -358.03924462 324.77868442 -339 348 C-338.53867676 348.56428711 -338.07735352 349.12857422 -337.60205078 349.70996094 C-327.20078435 362.34082494 -316.01940743 374.03581351 -303 384 C-302.44086914 384.43022461 -301.88173828 384.86044922 -301.30566406 385.30371094 C-292.25026322 392.23421598 -282.91965528 398.38396446 -273 404 C-272.04649658 404.55252441 -272.04649658 404.55252441 -271.07373047 405.11621094 C-230.27684656 428.64149583 -181.35264683 436.34247138 -135 430 C-134.29391602 429.90348145 -133.58783203 429.80696289 -132.86035156 429.70751953 C-84.56682145 422.77428996 -41.99432802 400.5674441 -7 367 C-6.17628906 366.21753906 -5.35257812 365.43507813 -4.50390625 364.62890625 C14.0787919 346.56149956 27.97115036 324.28716468 39 301 C39.51175781 299.94167969 40.02351563 298.88335937 40.55078125 297.79296875 C48.41392559 280.60426238 53.55570328 261.77860059 56.64160156 243.16113281 C56.964281 241.21538461 57.31995642 239.27517747 57.6796875 237.3359375 C62.14883074 209.23543414 59.07029576 179.37051883 52 152 C51.82243164 151.30777344 51.64486328 150.61554688 51.46191406 149.90234375 C44.79461847 124.46916627 33.4277777 100.29131354 18 79 C17.59426758 78.43877441 17.18853516 77.87754883 16.77050781 77.29931641 C9.32187113 67.10100456 0.93491108 57.9207959 -8 49 C-8.75796875 48.195625 -9.5159375 47.39125 -10.296875 46.5625 C-23.02336444 33.26858746 -38.06135184 23.06719955 -54 14 C-54.76038574 13.56558594 -55.52077148 13.13117188 -56.30419922 12.68359375 C-134.08187754 -31.24563236 -232.21430526 -22.18718389 -319 47 Z " fill="#010101" transform="translate(495,126)"/>
<path d="M0 0 C1.03576172 -0.00128906 2.07152344 -0.00257813 3.13867188 -0.00390625 C4.22599609 -0.00003906 5.31332031 0.00382813 6.43359375 0.0078125 C7.49384766 0.00394531 8.55410156 0.00007812 9.64648438 -0.00390625 C19.41487959 0.00814606 28.08652653 0.88384997 37.43359375 3.7578125 C38.30201904 4.02360107 39.17044434 4.28938965 40.06518555 4.56323242 C59.65853578 10.73180847 76.78965337 20.15489215 91.87109375 34.1328125 C92.41507812 34.63296875 92.9590625 35.133125 93.51953125 35.6484375 C116.85379457 57.33944284 133.51239432 87.8437201 134.87109375 120.1328125 C134.90364258 120.82632813 134.93619141 121.51984375 134.96972656 122.234375 C135.06880862 124.59633102 135.1308378 126.95689411 135.18359375 129.3203125 C135.21348389 130.06885498 135.24337402 130.81739746 135.27416992 131.58862305 C135.33771427 137.77975619 133.72492779 143.038775 129.45849609 147.66430664 C123.70236484 152.73571078 118.33332396 153.64392409 110.8828125 153.515625 C105.08551671 152.77874434 101.53312444 149.83976294 97.55859375 145.7578125 C93.79794691 139.90791742 92.51059888 135.16395717 92.43359375 128.2578125 C91.44830567 103.20569652 80.86425897 82.13901077 62.8828125 64.734375 C45.92135574 50.08284425 25.39549757 43.05392449 3.22851562 42.07910156 C-4.21086383 41.60807408 -9.24078659 39.09898945 -14.44140625 33.7578125 C-18.04915608 28.1457572 -20.25168484 22.86948407 -19.12890625 16.1328125 C-17.0793465 9.40406918 -12.65466276 5.25918911 -7.12890625 1.1328125 C-4.59962635 -0.13182745 -2.82884263 0.00340268 0 0 Z " fill="#010101" transform="translate(327.12890625,181.8671875)"/>
</svg>
